<mxfile host="Electron" agent="Mozilla/5.0 (X11; Linux x86_64) AppleWebKit/537.36 (KHTML, like Gecko) draw.io/28.0.6 Chrome/138.0.7204.100 Electron/37.2.3 Safari/537.36" version="28.0.6">
  <diagram name="第 1 页" id="w2QwVxT2KA-1YA2dhSJx">
    <mxGraphModel dx="1388" dy="828" grid="1" gridSize="10" guides="1" tooltips="1" connect="1" arrows="1" fold="1" page="1" pageScale="1" pageWidth="827" pageHeight="1169" math="0" shadow="0">
      <root>
        <mxCell id="0" />
        <mxCell id="1" parent="0" />
        <mxCell id="vvxL6KVD6F8uaDzUZ5qW-1" value="ChatClient" style="rounded=0;whiteSpace=wrap;html=1;" vertex="1" parent="1">
          <mxGeometry x="800" y="160" width="120" height="60" as="geometry" />
        </mxCell>
        <mxCell id="vvxL6KVD6F8uaDzUZ5qW-2" value="AuthClient" style="rounded=0;whiteSpace=wrap;html=1;" vertex="1" parent="1">
          <mxGeometry x="620" y="160" width="120" height="60" as="geometry" />
        </mxCell>
        <mxCell id="vvxL6KVD6F8uaDzUZ5qW-3" value="FtpClient" style="rounded=0;whiteSpace=wrap;html=1;" vertex="1" parent="1">
          <mxGeometry x="990" y="160" width="120" height="60" as="geometry" />
        </mxCell>
        <mxCell id="vvxL6KVD6F8uaDzUZ5qW-6" value="" style="rounded=0;whiteSpace=wrap;html=1;fillColor=none;" vertex="1" parent="1">
          <mxGeometry x="600" y="140" width="530" height="120" as="geometry" />
        </mxCell>
        <mxCell id="vvxL6KVD6F8uaDzUZ5qW-7" value="Client" style="text;html=1;align=center;verticalAlign=middle;resizable=0;points=[];autosize=1;strokeColor=none;fillColor=none;" vertex="1" parent="1">
          <mxGeometry x="835" y="117" width="50" height="30" as="geometry" />
        </mxCell>
        <mxCell id="vvxL6KVD6F8uaDzUZ5qW-8" value="" style="endArrow=classic;html=1;rounded=0;exitX=0.151;exitY=0;exitDx=0;exitDy=0;exitPerimeter=0;" edge="1" parent="1" source="vvxL6KVD6F8uaDzUZ5qW-6">
          <mxGeometry width="50" height="50" relative="1" as="geometry">
            <mxPoint x="885" y="30" as="sourcePoint" />
            <mxPoint x="680" y="80" as="targetPoint" />
          </mxGeometry>
        </mxCell>
        <mxCell id="vvxL6KVD6F8uaDzUZ5qW-9" value="connect" style="edgeLabel;html=1;align=center;verticalAlign=middle;resizable=0;points=[];" vertex="1" connectable="0" parent="vvxL6KVD6F8uaDzUZ5qW-8">
          <mxGeometry x="0.1333" y="1" relative="1" as="geometry">
            <mxPoint as="offset" />
          </mxGeometry>
        </mxCell>
        <mxCell id="vvxL6KVD6F8uaDzUZ5qW-13" value="server" style="text;html=1;align=center;verticalAlign=middle;resizable=0;points=[];autosize=1;strokeColor=none;fillColor=none;" vertex="1" parent="1">
          <mxGeometry x="650" y="55" width="60" height="30" as="geometry" />
        </mxCell>
        <mxCell id="vvxL6KVD6F8uaDzUZ5qW-14" value="FTXUI" style="rounded=0;whiteSpace=wrap;html=1;" vertex="1" parent="1">
          <mxGeometry x="430" y="200" width="120" height="60" as="geometry" />
        </mxCell>
        <mxCell id="vvxL6KVD6F8uaDzUZ5qW-15" value="" style="endArrow=classic;html=1;rounded=0;exitX=1;exitY=0.5;exitDx=0;exitDy=0;entryX=0;entryY=0.75;entryDx=0;entryDy=0;" edge="1" parent="1" source="vvxL6KVD6F8uaDzUZ5qW-14" target="vvxL6KVD6F8uaDzUZ5qW-6">
          <mxGeometry width="50" height="50" relative="1" as="geometry">
            <mxPoint x="830" y="250" as="sourcePoint" />
            <mxPoint x="880" y="200" as="targetPoint" />
          </mxGeometry>
        </mxCell>
        <mxCell id="vvxL6KVD6F8uaDzUZ5qW-16" value="controller" style="text;html=1;align=center;verticalAlign=middle;resizable=0;points=[];autosize=1;strokeColor=none;fillColor=none;" vertex="1" parent="1">
          <mxGeometry x="597" y="216" width="70" height="30" as="geometry" />
        </mxCell>
        <mxCell id="vvxL6KVD6F8uaDzUZ5qW-18" value="" style="endArrow=classic;html=1;rounded=0;exitX=1.01;exitY=0.095;exitDx=0;exitDy=0;exitPerimeter=0;" edge="1" parent="1" source="vvxL6KVD6F8uaDzUZ5qW-16">
          <mxGeometry width="50" height="50" relative="1" as="geometry">
            <mxPoint x="830" y="250" as="sourcePoint" />
            <mxPoint x="668" y="300" as="targetPoint" />
          </mxGeometry>
        </mxCell>
        <mxCell id="vvxL6KVD6F8uaDzUZ5qW-22" value="EventLoop" style="rounded=0;whiteSpace=wrap;html=1;" vertex="1" parent="1">
          <mxGeometry x="803.75" y="290" width="117.5" height="50" as="geometry" />
        </mxCell>
        <mxCell id="vvxL6KVD6F8uaDzUZ5qW-23" value="" style="endArrow=classic;html=1;rounded=0;entryX=0.471;entryY=0;entryDx=0;entryDy=0;entryPerimeter=0;" edge="1" parent="1" target="vvxL6KVD6F8uaDzUZ5qW-22">
          <mxGeometry width="50" height="50" relative="1" as="geometry">
            <mxPoint x="860" y="220" as="sourcePoint" />
            <mxPoint x="880" y="200" as="targetPoint" />
          </mxGeometry>
        </mxCell>
        <mxCell id="vvxL6KVD6F8uaDzUZ5qW-24" value="connect" style="edgeLabel;html=1;align=center;verticalAlign=middle;resizable=0;points=[];" vertex="1" connectable="0" parent="vvxL6KVD6F8uaDzUZ5qW-23">
          <mxGeometry x="0.429" y="-1" relative="1" as="geometry">
            <mxPoint as="offset" />
          </mxGeometry>
        </mxCell>
        <mxCell id="vvxL6KVD6F8uaDzUZ5qW-25" value="" style="rounded=0;whiteSpace=wrap;html=1;fillColor=none;" vertex="1" parent="1">
          <mxGeometry x="780" y="280" width="170" height="70" as="geometry" />
        </mxCell>
        <mxCell id="vvxL6KVD6F8uaDzUZ5qW-26" value="recvThread" style="text;html=1;align=center;verticalAlign=middle;resizable=0;points=[];autosize=1;strokeColor=none;fillColor=none;" vertex="1" parent="1">
          <mxGeometry x="875" y="271" width="80" height="30" as="geometry" />
        </mxCell>
        <mxCell id="vvxL6KVD6F8uaDzUZ5qW-28" value="" style="endArrow=classic;html=1;rounded=0;" edge="1" parent="1">
          <mxGeometry width="50" height="50" relative="1" as="geometry">
            <mxPoint x="670" y="280" as="sourcePoint" />
            <mxPoint x="640" y="300" as="targetPoint" />
            <Array as="points">
              <mxPoint x="640" y="280" />
            </Array>
          </mxGeometry>
        </mxCell>
        <mxCell id="vvxL6KVD6F8uaDzUZ5qW-29" value="" style="endArrow=classic;html=1;rounded=0;" edge="1" parent="1">
          <mxGeometry width="50" height="50" relative="1" as="geometry">
            <mxPoint x="670" y="280" as="sourcePoint" />
            <mxPoint x="700" y="300" as="targetPoint" />
            <Array as="points">
              <mxPoint x="700" y="280" />
            </Array>
          </mxGeometry>
        </mxCell>
        <mxCell id="vvxL6KVD6F8uaDzUZ5qW-31" value="&lt;font style=&quot;font-size: 9px;&quot;&gt;register&lt;/font&gt;" style="text;html=1;align=center;verticalAlign=middle;resizable=0;points=[];autosize=1;strokeColor=none;fillColor=none;" vertex="1" parent="1">
          <mxGeometry x="612" y="292" width="50" height="30" as="geometry" />
        </mxCell>
        <mxCell id="vvxL6KVD6F8uaDzUZ5qW-32" value="&lt;font style=&quot;font-size: 8px;&quot;&gt;login&lt;/font&gt;" style="text;html=1;align=center;verticalAlign=middle;resizable=0;points=[];autosize=1;strokeColor=none;fillColor=none;" vertex="1" parent="1">
          <mxGeometry x="647" y="292" width="40" height="30" as="geometry" />
        </mxCell>
        <mxCell id="vvxL6KVD6F8uaDzUZ5qW-33" value="&lt;font style=&quot;font-size: 7px;&quot;&gt;auto login&lt;/font&gt;" style="text;html=1;align=center;verticalAlign=middle;resizable=0;points=[];autosize=1;strokeColor=none;fillColor=none;" vertex="1" parent="1">
          <mxGeometry x="677" y="292" width="50" height="30" as="geometry" />
        </mxCell>
        <mxCell id="vvxL6KVD6F8uaDzUZ5qW-35" value="" style="endArrow=classic;html=1;rounded=0;exitX=0.849;exitY=0.667;exitDx=0;exitDy=0;exitPerimeter=0;" edge="1" parent="1" source="vvxL6KVD6F8uaDzUZ5qW-6">
          <mxGeometry width="50" height="50" relative="1" as="geometry">
            <mxPoint x="840" y="200" as="sourcePoint" />
            <mxPoint x="1050" y="240" as="targetPoint" />
          </mxGeometry>
        </mxCell>
        <mxCell id="vvxL6KVD6F8uaDzUZ5qW-36" value="upload&lt;div&gt;download&lt;/div&gt;" style="text;html=1;align=center;verticalAlign=middle;resizable=0;points=[];autosize=1;strokeColor=none;fillColor=none;" vertex="1" parent="1">
          <mxGeometry x="1015" y="263" width="70" height="40" as="geometry" />
        </mxCell>
        <mxCell id="vvxL6KVD6F8uaDzUZ5qW-37" value="" style="endArrow=classic;html=1;rounded=0;entryX=0.501;entryY=0.071;entryDx=0;entryDy=0;entryPerimeter=0;" edge="1" parent="1" target="vvxL6KVD6F8uaDzUZ5qW-36">
          <mxGeometry width="50" height="50" relative="1" as="geometry">
            <mxPoint x="1050" y="240" as="sourcePoint" />
            <mxPoint x="870" y="170" as="targetPoint" />
          </mxGeometry>
        </mxCell>
      </root>
    </mxGraphModel>
  </diagram>
</mxfile>
